<svg width="20" height="20" viewBox="0 0 20 20" fill="none" xmlns="http://www.w3.org/2000/svg">
<g clip-path="url(#clip0_1704_303)">
<path d="M3.54167 0.317383H16.4583C18.4167 0.317383 20 1.88976 20 3.83454V16.1653C20 18.1101 18.4167 19.6825 16.4583 19.6825H3.54167C1.58333 19.6825 0 18.1101 0 16.1653V3.83454C0 1.88976 1.58333 0.317383 3.54167 0.317383Z" fill="#00005B"/>
<path d="M8.03337 11.9033H4.93337L4.30004 13.8564C4.28337 13.9308 4.21671 13.9805 4.14171 13.9722H2.57504C2.48337 13.9722 2.45837 13.9226 2.48337 13.8233L5.16671 6.18481C5.19171 6.10206 5.21671 6.02758 5.25004 5.92827C5.28337 5.75448 5.30004 5.57241 5.30004 5.39035C5.29171 5.34897 5.32504 5.30759 5.36671 5.29932H5.39171H7.52504C7.58337 5.29932 7.62504 5.32414 7.63337 5.36552L10.675 13.8067C10.7 13.8977 10.675 13.9391 10.5917 13.9391H8.85004C8.79171 13.9474 8.73337 13.906 8.71671 13.8481L8.03337 11.8619V11.9033ZM5.41671 10.2564H7.53337C7.48337 10.0827 7.41671 9.87576 7.34171 9.6606C7.26671 9.43715 7.19171 9.19716 7.11671 8.94889C7.03337 8.69234 6.95837 8.44407 6.87504 8.18753C6.79171 7.93098 6.71671 7.69099 6.65004 7.45099C6.58337 7.21927 6.52504 7.00411 6.46671 6.80549H6.45004C6.37504 7.16134 6.28337 7.5172 6.16671 7.87305C6.04171 8.27028 5.91671 8.68407 5.78337 9.09785C5.67504 9.51991 5.54171 9.90887 5.41671 10.2564Z" fill="#9999FF"/>
<path d="M15.5833 11.1583H12.9417C12.975 11.4148 13.0583 11.6714 13.2 11.8948C13.35 12.1182 13.5583 12.292 13.8083 12.3913C14.1417 12.532 14.5083 12.6065 14.875 12.5982C15.1667 12.59 15.4583 12.5651 15.7417 12.5072C16 12.4741 16.25 12.4079 16.4834 12.3169C16.525 12.2838 16.55 12.3003 16.55 12.3831V13.6493C16.55 13.6824 16.5417 13.7155 16.5333 13.7486C16.5167 13.7734 16.5 13.7899 16.475 13.8065C16.2083 13.9223 15.9333 14.0051 15.6417 14.0548C15.25 14.1292 14.8583 14.1623 14.4583 14.1541C13.825 14.1541 13.2917 14.0548 12.8584 13.8644C12.45 13.6906 12.0917 13.4175 11.8083 13.0782C11.5417 12.7555 11.35 12.3913 11.2334 11.9941C11.1167 11.6052 11.0583 11.1997 11.0583 10.7859C11.0583 10.339 11.125 9.90037 11.2667 9.47003C11.4 9.05625 11.6083 8.67557 11.8917 8.33627C12.1667 8.00524 12.5084 7.74042 12.9 7.55008C13.2917 7.35974 13.7583 7.29353 14.2917 7.29353C14.7333 7.28526 15.175 7.36801 15.5833 7.55008C15.925 7.69904 16.225 7.92248 16.4584 8.21213C16.675 8.4935 16.85 8.80798 16.9584 9.15556C17.0667 9.48659 17.1167 9.82589 17.1167 10.1652C17.1167 10.3638 17.1083 10.5376 17.1 10.6948C17.0833 10.8521 17.075 10.9679 17.0667 11.0424C17.0584 11.1003 17.0083 11.15 16.95 11.15C16.9 11.15 16.8084 11.1583 16.675 11.1665C16.5417 11.1831 16.3834 11.1914 16.1917 11.1914C16 11.1914 15.8 11.1583 15.5833 11.1583ZM12.9417 9.95002H14.7C14.9167 9.95002 15.075 9.95002 15.175 9.94175C15.2417 9.93347 15.3083 9.91692 15.3667 9.87554V9.79279C15.3667 9.6852 15.35 9.58589 15.3167 9.48659C15.1667 9.02315 14.725 8.70867 14.2334 8.72522C13.775 8.7004 13.3417 8.94039 13.125 9.35417C13.025 9.54452 12.9667 9.74313 12.9417 9.95002Z" fill="#9999FF"/>
</g>
<defs>
<clipPath id="clip0_1704_303">
<rect width="20" height="19.3651" fill="white" transform="translate(0 0.317383)"/>
</clipPath>
</defs>
</svg>
