<svg width="20" height="20" viewBox="0 0 20 20" fill="none" xmlns="http://www.w3.org/2000/svg">
<g clip-path="url(#clip0_1704_260)">
<path d="M3.54167 0.25H16.4583C18.4167 0.25 20 1.83333 20 3.79167V16.2083C20 18.1667 18.4167 19.75 16.4583 19.75H3.54167C1.58333 19.75 0 18.1667 0 16.2083V3.79167C0 1.83333 1.58333 0.25 3.54167 0.25Z" fill="#330000"/>
<path d="M9.66667 11.9169H6.56667L5.93334 13.8752C5.91667 13.9502 5.85001 14.0002 5.77501 13.9919H4.20834C4.11667 13.9919 4.09167 13.9419 4.11667 13.8419L6.80001 6.11686C6.82501 6.03353 6.85001 5.94186 6.88334 5.84186C6.91667 5.66686 6.93334 5.48353 6.93334 5.3002C6.92501 5.25853 6.95834 5.21686 7.00001 5.20853H9.15834C9.22501 5.20853 9.25834 5.23353 9.26667 5.2752L12.3083 13.8585C12.3333 13.9502 12.3083 13.9919 12.225 13.9919H10.4833C10.425 14.0002 10.3667 13.9585 10.35 13.9002L9.66667 11.9169ZM7.05001 10.2252H9.16667C9.11667 10.0502 9.05001 9.84186 8.97501 9.62519C8.90001 9.40019 8.82501 9.15853 8.75001 8.90853C8.66667 8.6502 8.59167 8.40019 8.50834 8.14186C8.42501 7.88353 8.35001 7.64186 8.28334 7.4002C8.21667 7.16686 8.15834 6.9502 8.10001 6.7502H8.08334C8.00834 7.10853 7.91667 7.46686 7.80001 7.8252C7.67501 8.2252 7.55001 8.64186 7.41667 9.05853C7.30001 9.48353 7.17501 9.87519 7.05001 10.2252ZM14.1667 6.66686C13.8917 6.6752 13.625 6.56686 13.425 6.3752C13.2333 6.16686 13.1333 5.89186 13.1417 5.60853C13.1333 5.3252 13.2417 5.05853 13.4417 4.86686C13.6417 4.6752 13.9083 4.5752 14.1833 4.5752C14.5083 4.5752 14.7583 4.6752 14.9417 4.86686C15.125 5.06686 15.225 5.33353 15.2167 5.60853C15.225 5.89186 15.125 6.16686 14.925 6.3752C14.7333 6.5752 14.45 6.68353 14.1667 6.66686ZM13.2333 13.9002V7.48353C13.2333 7.4002 13.2667 7.36686 13.3417 7.36686H14.9917C15.0667 7.36686 15.1 7.40853 15.1 7.48353V13.9002C15.1 13.9919 15.0667 14.0335 14.9917 14.0335H13.3583C13.275 14.0335 13.2333 13.9835 13.2333 13.9002Z" fill="#FF9A00"/>
</g>
<defs>
<clipPath id="clip0_1704_260">
<rect width="20" height="19.5" fill="white" transform="translate(0 0.25)"/>
</clipPath>
</defs>
</svg>
