<svg width="18" height="24" viewBox="0 0 18 24" fill="none" xmlns="http://www.w3.org/2000/svg">
<path d="M8.49117 23.9997L1.54739 22.0721L0 4.71631H17.0032L15.4541 22.0694L8.49117 23.9997Z" fill="#264DE4"/>
<path d="M14.128 20.9647L15.4517 6.13574H8.50159V22.5246L14.128 20.9647Z" fill="#2965F1"/>
<path d="M3.54736 12.5728L3.73814 14.7013H8.50158V12.5728H3.54736Z" fill="#EBEBEB"/>
<path d="M3.16406 8.26416L3.35756 10.3928H8.50163V8.26416H8.49427H3.16406Z" fill="#EBEBEB"/>
<path d="M8.50158 18.1009L8.49225 18.1034L6.1216 17.4633L5.97005 15.7656H4.8181H3.83325L4.13147 19.1079L8.49178 20.3183L8.50158 20.3156V18.1009Z" fill="#EBEBEB"/>
<path d="M4.00159 0H6.57971V1.07812H5.07971V2.15625H6.57971V3.23438H4.00159V0Z" fill="black"/>
<path d="M7.09534 0H9.67346V0.9375H8.17346V1.125H9.67346V3.28125H7.09534V2.29688H8.59534V2.10938H7.09534V0Z" fill="black"/>
<path d="M10.1891 0H12.7672V0.9375H11.2672V1.125H12.7672V3.28125H10.1891V2.29688H11.6891V2.10938H10.1891V0Z" fill="black"/>
<path d="M13.4422 12.5725L13.8265 8.26416H8.49426V10.3928H11.4937L11.3 12.5725H8.49426V14.7011H11.1154L10.8683 17.4618L8.49426 18.1026V20.3171L12.858 19.1077L12.8901 18.7481L13.3903 13.1441L13.4422 12.5725Z" fill="white"/>
</svg>
