<svg width="17" height="24" viewBox="0 0 17 24" fill="none" xmlns="http://www.w3.org/2000/svg">
<g clip-path="url(#clip0_1704_388)">
<path d="M4.00159 24C6.20959 24 8.00159 22.208 8.00159 20V16H4.00159C1.79359 16 0.00158691 17.792 0.00158691 20C0.00158691 22.208 1.79359 24 4.00159 24Z" fill="#0ACF83"/>
<path d="M0.00158691 12C0.00158691 9.792 1.79359 8 4.00159 8H8.00159V16H4.00159C1.79359 16 0.00158691 14.208 0.00158691 12Z" fill="#A259FF"/>
<path d="M0.00158691 4C0.00158691 1.792 1.79359 0 4.00159 0H8.00159V8H4.00159C1.79359 8 0.00158691 6.208 0.00158691 4Z" fill="#F24E1E"/>
<path d="M8.00159 0H12.0016C14.2096 0 16.0016 1.792 16.0016 4C16.0016 6.208 14.2096 8 12.0016 8H8.00159V0Z" fill="#FF7262"/>
<path d="M16.0016 12C16.0016 14.208 14.2096 16 12.0016 16C9.79359 16 8.00159 14.208 8.00159 12C8.00159 9.792 9.79359 8 12.0016 8C14.2096 8 16.0016 9.792 16.0016 12Z" fill="#1ABCFE"/>
</g>
<defs>
<clipPath id="clip0_1704_388">
<rect width="16.0032" height="24" fill="white"/>
</clipPath>
</defs>
</svg>
