<svg width="18" height="24" viewBox="0 0 18 24" fill="none" xmlns="http://www.w3.org/2000/svg">
<path d="M17.0032 4.71631L15.4541 22.0694L8.49117 23.9997L1.54739 22.0721L0 4.71631H17.0032Z" fill="#E44D26"/>
<path d="M8.50159 22.5246L14.128 20.9647L15.4517 6.13574H8.50159V22.5246Z" fill="#F16529"/>
<path d="M5.49037 10.3928H8.50163V8.26416H8.49427H3.16406L3.21502 8.83524L3.73819 14.7011H8.50163V12.5725H5.68491L5.49037 10.3928Z" fill="#EBEBEB"/>
<path d="M5.97005 15.7656H4.8181H3.83325L4.13147 19.1079L8.49178 20.3183L8.50158 20.3156V18.1009L8.49225 18.1034L6.1216 17.4633L5.97005 15.7656Z" fill="#EBEBEB"/>
<path d="M1.58203 0H2.66377V1.06875H3.6533V0H4.73508V3.23644H3.65334V2.15269H2.66381V3.23644H1.58208L1.58203 0Z" fill="black"/>
<path d="M6.15751 1.07325H5.2052V0H8.19208V1.07325H7.23934V3.23644H6.15756L6.15751 1.07325Z" fill="black"/>
<path d="M8.66614 0H9.79409L10.4879 1.13719L11.1811 0H12.3095V3.23644H11.2322V1.63228L10.4879 2.78302H10.4693L9.72458 1.63228V3.23644H8.66614V0Z" fill="black"/>
<path d="M12.8478 0H13.9298V2.16666H15.4511V3.23644H12.8478V0Z" fill="black"/>
<path d="M8.49426 14.7013H11.1154L10.8683 17.462L8.49426 18.1028V20.3173L12.858 19.1079L12.8901 18.7483L13.3903 13.1443L13.4422 12.5728H12.8686H8.49426V14.7013Z" fill="white"/>
<path d="M8.49426 10.3876V10.3928H13.629H13.6359L13.6786 9.91435L13.7756 8.83524L13.8265 8.26416H8.49426V9.58622V10.3876Z" fill="white"/>
</svg>
