<svg width="20" height="14" viewBox="0 0 20 14" fill="none" xmlns="http://www.w3.org/2000/svg">
<g clip-path="url(#clip0_1727_235)">
<path d="M11.6666 4.37523C11.9803 4.06355 12.2583 3.78726 12.5001 3.54707C12.7411 3.30751 12.9709 3.09705 13.1884 2.91703C13.4058 2.73692 13.6232 2.55139 13.8407 2.35894C14.3235 1.95123 14.7221 1.66314 15.0363 1.49492C15.3498 1.32724 15.6522 1.24293 15.9421 1.24293C16.3524 1.24293 16.7211 1.39322 17.0471 1.69295C17.3732 1.9933 17.5362 2.3355 17.5362 2.71907C17.5362 3.00708 17.4576 3.3013 17.3007 3.60118C17.1434 3.90161 16.8598 4.31561 16.4492 4.84319C14.5652 7.29141 13.6232 8.87553 13.6232 9.59555C13.6232 9.90778 13.7801 10.0637 14.0941 10.0637C14.3354 10.0637 14.6015 9.96174 14.8914 9.75749C15.1811 9.55394 15.5554 9.19948 16.0145 8.69551C16.2556 8.43164 16.5518 8.07152 16.9021 7.61544C17.2521 7.15967 17.56 6.73962 17.8261 6.35535C18.0917 5.97162 18.3152 5.70721 18.4964 5.56336C18.6776 5.41928 18.8887 5.34732 19.1305 5.34732C19.3717 5.34732 19.5772 5.43162 19.7463 5.59915C19.9152 5.76738 20 5.97162 20 6.21134C20 6.66758 19.7884 7.27348 19.3659 8.02944C18.9431 8.78548 18.3933 9.55953 17.7173 10.3516C16.8716 11.3596 16.0083 12.14 15.1269 12.6917C14.2448 13.2437 13.442 13.5199 12.7175 13.5199C12.0409 13.5199 11.4855 13.2976 11.0507 12.8539C10.6159 12.41 10.3986 11.8401 10.3986 11.1437C10.3986 10.7836 10.4286 10.4416 10.4891 10.1176C10.5492 9.79351 10.6397 9.45776 10.7608 9.10951C10.8814 8.76181 11.0507 8.38957 11.2681 7.99342C11.4855 7.59735 11.7629 7.15967 12.1014 6.67938C12.1252 6.63155 12.1859 6.53537 12.2827 6.39137C11.6541 6.87182 11.0327 7.47749 10.4166 8.20954C9.80078 8.94183 9.17859 9.88364 8.5507 11.0357C8.09148 11.8041 7.74117 12.3138 7.49992 12.5658C7.2582 12.8178 6.95656 12.9437 6.59422 12.9437C6.2075 12.9437 5.88766 12.806 5.63398 12.5298C5.38031 12.2541 5.25359 11.912 5.25359 11.5036C5.25359 11.2399 5.28352 10.9816 5.34406 10.7296C5.40414 10.4777 5.53109 10.1356 5.72469 9.70362C5.84508 9.36771 6.00195 9.00153 6.19563 8.60538C6.38867 8.20954 6.55797 7.90337 6.70289 7.68748L7.39125 6.49935C7.43938 6.45153 7.51187 6.33167 7.60867 6.1393C7.12516 6.52357 6.65422 6.96172 6.19563 7.45335C5.73641 7.9456 5.29547 8.45579 4.8732 8.9836C4.45023 9.51171 4.07609 10.0456 3.75 10.5857C3.42383 11.1256 3.15211 11.6476 2.93477 12.1518C2.64484 12.8239 2.38555 13.2734 2.1557 13.5018C1.92656 13.7297 1.63031 13.8438 1.26797 13.8438C0.905781 13.8438 0.603984 13.6998 0.362188 13.4119C0.121172 13.1238 0 12.7519 0 12.2958C0 11.3839 0.447109 9.8116 1.34047 7.57942C1.84781 6.30753 2.3975 5.1312 2.98898 4.0512C3.5807 2.97113 4.16664 2.04741 4.74625 1.27887C5.0843 0.846939 5.37422 0.540843 5.61594 0.360973C5.85703 0.180871 6.12312 0.0908203 6.41305 0.0908203C6.72672 0.0908203 6.99844 0.198882 7.22828 0.414849C7.45758 0.630894 7.57242 0.895302 7.57242 1.20691C7.57242 1.4471 7.5182 1.69916 7.40945 1.96303C7.30078 2.22744 7.04078 2.68305 6.63039 3.33103C6.55797 3.45159 6.44922 3.63712 6.3043 3.88903C6.15937 4.1411 5.9782 4.45962 5.76094 4.84319L5.36227 5.63517C6.08688 4.77115 6.72094 4.03933 7.26445 3.43909C7.80789 2.8394 8.28461 2.35894 8.69563 1.99905C9.10617 1.639 9.47469 1.37506 9.80078 1.20691C10.1267 1.03938 10.4223 0.955 10.6884 0.955C11.0264 0.955 11.3163 1.06912 11.558 1.29696C11.7991 1.52535 11.9202 1.80722 11.9202 2.1429C11.9202 2.35894 11.8716 2.59921 11.7753 2.86307C11.6785 3.12748 11.473 3.53527 11.1595 4.08715L10.3986 5.4553L10.1087 5.9953L10.5434 5.52734C10.9782 5.07158 11.3526 4.68731 11.6666 4.37523Z" fill="#1991EB"/>
</g>
<defs>
<clipPath id="clip0_1727_235">
<rect width="20" height="13.8182" fill="white" transform="translate(0 0.0908203)"/>
</clipPath>
</defs>
</svg>
