<svg width="20" height="20" viewBox="0 0 20 20" fill="none" xmlns="http://www.w3.org/2000/svg">
<g clip-path="url(#clip0_1704_238)">
<path d="M3.54167 0.25H16.4583C18.4167 0.25 20 1.83333 20 3.79167V16.2083C20 18.1667 18.4167 19.75 16.4583 19.75H3.54167C1.58333 19.75 0 18.1667 0 16.2083V3.79167C0 1.83333 1.58333 0.25 3.54167 0.25Z" fill="#001E36"/>
<path d="M4.5 13.9252V5.35016C4.5 5.29183 4.525 5.2585 4.58333 5.2585C4.725 5.2585 4.85833 5.2585 5.05 5.25016C5.25 5.24183 5.45833 5.24183 5.68333 5.2335C5.90833 5.22516 6.15 5.22516 6.40833 5.21683C6.66667 5.2085 6.91667 5.2085 7.16667 5.2085C7.85 5.2085 8.41667 5.29183 8.88333 5.46683C9.3 5.6085 9.68333 5.84183 10 6.15016C10.2667 6.41683 10.475 6.74183 10.6083 7.10016C10.7333 7.45016 10.8 7.8085 10.8 8.1835C10.8 8.90016 10.6333 9.49183 10.3 9.9585C9.96667 10.4252 9.5 10.7752 8.95833 10.9752C8.39167 11.1835 7.76667 11.2585 7.08333 11.2585C6.88333 11.2585 6.75 11.2585 6.66667 11.2502C6.58333 11.2418 6.46667 11.2418 6.30833 11.2418V13.9168C6.31667 13.9752 6.275 14.0252 6.21667 14.0335C6.20833 14.0335 6.2 14.0335 6.18333 14.0335H4.6C4.53333 14.0335 4.5 14.0002 4.5 13.9252ZM6.31667 6.86683V9.66683C6.43333 9.67516 6.54167 9.6835 6.64167 9.6835H7.08333C7.40833 9.6835 7.73333 9.6335 8.04167 9.5335C8.30833 9.4585 8.54167 9.30016 8.725 9.09183C8.9 8.8835 8.98333 8.60016 8.98333 8.2335C8.99167 7.97516 8.925 7.71683 8.79167 7.49183C8.65 7.27516 8.45 7.1085 8.20833 7.01683C7.9 6.89183 7.56667 6.84183 7.225 6.85016C7.00833 6.85016 6.81667 6.85016 6.65833 6.8585C6.49167 6.85016 6.375 6.8585 6.31667 6.86683Z" fill="#31A8FF"/>
<path d="M15.9999 9.15872C15.7499 9.02539 15.4833 8.93372 15.1999 8.87539C14.8916 8.80872 14.5833 8.76706 14.2666 8.76706C14.0999 8.75872 13.9249 8.78372 13.7666 8.82539C13.6583 8.85039 13.5666 8.90872 13.5083 8.99206C13.4666 9.05872 13.4416 9.14206 13.4416 9.21706C13.4416 9.29206 13.4749 9.36706 13.5249 9.43372C13.5999 9.52539 13.6999 9.60039 13.8083 9.65872C13.9999 9.75872 14.1999 9.85039 14.3999 9.93372C14.8499 10.0837 15.2833 10.2921 15.6833 10.5421C15.9583 10.7171 16.1833 10.9504 16.3416 11.2337C16.4749 11.5004 16.5416 11.7921 16.5333 12.0921C16.5416 12.4837 16.4249 12.8754 16.2083 13.2004C15.9749 13.5337 15.6499 13.7921 15.2749 13.9421C14.8666 14.1171 14.3666 14.2087 13.7666 14.2087C13.3833 14.2087 13.0083 14.1754 12.6333 14.1004C12.3416 14.0504 12.0499 13.9587 11.7833 13.8337C11.7249 13.8004 11.6833 13.7421 11.6916 13.6754V12.2254C11.6916 12.2004 11.6999 12.1671 11.7249 12.1504C11.7499 12.1337 11.7749 12.1421 11.7999 12.1587C12.1249 12.3504 12.4666 12.4837 12.8333 12.5671C13.1499 12.6504 13.4833 12.6921 13.8166 12.6921C14.1333 12.6921 14.3583 12.6504 14.5083 12.5754C14.6416 12.5171 14.7333 12.3754 14.7333 12.2254C14.7333 12.1087 14.6666 12.0004 14.5333 11.8921C14.3999 11.7837 14.1249 11.6587 13.7166 11.5004C13.2916 11.3504 12.8999 11.1504 12.5333 10.9004C12.2749 10.7171 12.0583 10.4754 11.8999 10.1921C11.7666 9.92539 11.6999 9.63372 11.7083 9.34206C11.7083 8.98372 11.8083 8.64206 11.9916 8.33372C12.1999 8.00039 12.5083 7.73372 12.8666 7.56706C13.2583 7.36706 13.7499 7.27539 14.3416 7.27539C14.6833 7.27539 15.0333 7.30039 15.3749 7.35039C15.6249 7.38372 15.8666 7.45039 16.0916 7.54206C16.1249 7.55039 16.1583 7.58372 16.1749 7.61706C16.1833 7.65039 16.1916 7.68372 16.1916 7.71706V9.07539C16.1916 9.10872 16.1749 9.14206 16.1499 9.15872C16.0749 9.17539 16.0333 9.17539 15.9999 9.15872Z" fill="#31A8FF"/>
</g>
<defs>
<clipPath id="clip0_1704_238">
<rect width="20" height="19.5" fill="white" transform="translate(0 0.25)"/>
</clipPath>
</defs>
</svg>
