<svg width="66" height="64" viewBox="0 0 66 64" fill="none" xmlns="http://www.w3.org/2000/svg">
<path fill-rule="evenodd" clip-rule="evenodd" d="M11.7592 0H54.2407C60.6815 0 65.8889 5.19658 65.8889 11.6239V52.3761C65.8889 58.8034 60.6815 64 54.2407 64H11.7592C5.31849 64 0.111084 58.8034 0.111084 52.3761V11.6239C0.111084 5.19658 5.31849 0 11.7592 0ZM26.5319 38.2905H16.3364L14.2534 44.7452C14.1986 44.9913 13.9793 45.1554 13.7327 45.1281H8.58007C8.27859 45.1281 8.19637 44.964 8.27859 44.6358L17.1038 19.3913C17.186 19.1178 17.2682 18.8717 17.3778 18.5435C17.4875 17.9691 17.5423 17.3674 17.5423 16.7657C17.5149 16.6289 17.6245 16.4922 17.7616 16.4648H17.8438H24.8601C25.0519 16.4648 25.189 16.5469 25.2164 16.6836L35.2201 44.5811C35.3023 44.8819 35.2201 45.0187 34.946 45.0187H29.2178C29.026 45.046 28.8341 44.9093 28.7793 44.7178L26.5319 38.1537V38.2905ZM17.926 32.8477H24.8875C24.723 32.2734 24.5038 31.5896 24.2571 30.8785C24.0104 30.1401 23.7638 29.3469 23.5171 28.5264C23.3801 28.1026 23.25 27.6857 23.1199 27.2688L23.1197 27.2683L23.1195 27.2678C22.9894 26.8508 22.8593 26.4339 22.7223 26.0101C22.4482 25.1623 22.2016 24.3691 21.9823 23.576C21.8853 23.237 21.7936 22.9089 21.7049 22.5914L21.7048 22.591C21.5932 22.1912 21.4862 21.8084 21.3793 21.4426H21.3245C21.0778 22.6187 20.7764 23.7948 20.3927 24.9708C20.2361 25.4708 20.0795 25.9788 19.9214 26.4917C19.6644 27.3253 19.4034 28.172 19.1319 29.0187C18.7756 30.4136 18.3371 31.699 17.926 32.8477ZM42.6747 35.8288H51.3629C51.7301 35.8288 52.0828 35.8578 52.4246 35.886C52.7461 35.9125 53.0581 35.9382 53.3636 35.9382C53.994 35.9382 54.5147 35.9108 54.9533 35.8561C55.1072 35.8465 55.2443 35.8369 55.3645 35.8285C55.5866 35.8129 55.751 35.8014 55.8577 35.8014C56.0495 35.8014 56.214 35.6373 56.2414 35.4459C56.2536 35.3362 56.2658 35.1995 56.2804 35.0356C56.2987 34.8315 56.3206 34.5853 56.351 34.2971C56.3784 33.7775 56.4058 33.2031 56.4058 32.5467C56.4058 31.4253 56.2414 30.304 55.8851 29.21C55.5288 28.0612 54.9533 27.0219 54.2407 26.092C53.4733 25.1347 52.4866 24.3963 51.3629 23.904C50.0199 23.3023 48.5673 23.0288 47.1147 23.0561C45.3607 23.0561 43.8258 23.2749 42.5377 23.904C41.2495 24.533 40.1258 25.4083 39.2214 26.5023C38.2895 27.6236 37.6044 28.8818 37.1658 30.2493C36.6999 31.6715 36.4807 33.1211 36.4807 34.598C36.4807 35.9655 36.6725 37.3057 37.0562 38.5912C37.4399 39.904 38.0703 41.1074 38.9473 42.1741C39.8792 43.2954 41.0577 44.198 42.4007 44.7724C43.8258 45.4014 45.5799 45.7296 47.6629 45.7296C48.9784 45.757 50.2666 45.6476 51.5547 45.4014C52.514 45.2373 53.4184 44.9638 54.2955 44.5809C54.3777 44.5262 54.4325 44.4715 54.4873 44.3894L54.4873 44.3894C54.5147 44.28 54.5421 44.1706 54.5421 44.0612V39.8766C54.5421 39.6031 54.4599 39.5484 54.3229 39.6578C53.5555 39.9587 52.7332 40.1775 51.8836 40.2869C50.9518 40.4783 49.9925 40.5604 49.0333 40.5877C47.8273 40.6151 46.6214 40.3689 45.5251 39.904C44.7029 39.5758 44.0177 39.0014 43.5244 38.263C43.0584 37.5245 42.7844 36.6766 42.6747 35.8288ZM48.4577 31.8356H42.6747C42.757 31.1518 42.9488 30.4954 43.2777 29.8664C43.9903 28.4988 45.4155 27.7057 46.9229 27.7877C48.5399 27.733 49.9925 28.7724 50.4858 30.304C50.5955 30.6322 50.6503 30.9604 50.6503 31.3159V31.5894C50.4584 31.7262 50.2392 31.7809 50.0199 31.8083C49.691 31.8356 49.1703 31.8356 48.4577 31.8356Z" fill="#100E0E"/>
</svg>
