<svg width="20" height="20" viewBox="0 0 20 20" fill="none" xmlns="http://www.w3.org/2000/svg">
<g clip-path="url(#clip0_1704_263)">
<path d="M3.54167 0.25H16.4583C18.4167 0.25 20 1.83333 20 3.79167V16.2083C20 18.1667 18.4167 19.75 16.4583 19.75H3.54167C1.58333 19.75 0 18.1667 0 16.2083V3.79167C0 1.83333 1.58333 0.25 3.54167 0.25Z" fill="#470137"/>
<path d="M10.5167 5.375L8.01672 9.5L10.6834 13.875C10.7001 13.9083 10.7084 13.9417 10.7001 13.975C10.6917 14.0083 10.6584 13.9833 10.6084 13.9917H8.70005C8.56672 13.9917 8.47505 13.9833 8.41672 13.9C8.24172 13.55 8.05839 13.2083 7.88339 12.8583C7.70839 12.5167 7.51672 12.1667 7.31672 11.8083C7.11672 11.45 6.91672 11.0917 6.71672 10.725H6.70005C6.52505 11.0833 6.33339 11.4417 6.14172 11.8C5.95005 12.1583 5.75839 12.5167 5.57505 12.8667C5.38339 13.2167 5.19172 13.575 5.00005 13.9167C4.96672 14 4.90005 14.0083 4.80839 14.0083H2.97505C2.94172 14.0083 2.91672 14.025 2.91672 13.9833C2.90839 13.95 2.91672 13.9167 2.93339 13.8917L5.52505 9.64167L3.00005 5.36667C2.97505 5.33333 2.96672 5.3 2.98339 5.28333C3.00005 5.25833 3.03339 5.25 3.06672 5.25H4.95839C5.00005 5.25 5.04172 5.25833 5.07505 5.26667C5.10839 5.28333 5.13339 5.30833 5.15839 5.34167C5.31672 5.7 5.50005 6.05833 5.69172 6.41667C5.89172 6.775 6.08339 7.125 6.29172 7.475C6.49172 7.825 6.67505 8.175 6.85005 8.53333H6.86672C7.04172 8.16667 7.22505 7.80833 7.40839 7.45833C7.59172 7.10833 7.78339 6.75833 7.97505 6.40833C8.16672 6.05833 8.35005 5.7 8.53339 5.35833C8.54172 5.325 8.55839 5.29167 8.58339 5.275C8.61672 5.25833 8.65005 5.25 8.69172 5.25833H10.4501C10.4917 5.25 10.5334 5.275 10.5417 5.31667C10.5501 5.325 10.5334 5.35833 10.5167 5.375Z" fill="#FF61F6"/>
<path d="M14.3667 14.1669C13.75 14.1752 13.1333 14.0502 12.575 13.7919C12.05 13.5502 11.6167 13.1502 11.3167 12.6586C11.0083 12.1502 10.8583 11.5169 10.8583 10.7586C10.85 10.1419 11.0083 9.53355 11.3167 9.00022C11.6333 8.45855 12.0917 8.00855 12.6417 7.70855C13.225 7.38355 13.925 7.22522 14.75 7.22522C14.7917 7.22522 14.85 7.22522 14.925 7.23355C15 7.24189 15.0833 7.24189 15.1833 7.25022V4.61689C15.1833 4.55855 15.2083 4.52522 15.2667 4.52522H16.9583C17 4.51689 17.0333 4.55022 17.0417 4.58355C17.0417 4.59189 17.0417 4.60022 17.0417 4.60022V12.5336C17.0417 12.6836 17.05 12.8502 17.0583 13.0336C17.075 13.2086 17.0833 13.3752 17.0917 13.5169C17.0917 13.5752 17.0667 13.6252 17.0083 13.6502C16.575 13.8336 16.1167 13.9669 15.65 14.0502C15.225 14.1252 14.8 14.1669 14.3667 14.1669ZM15.1833 12.5002V8.83355C15.1083 8.81689 15.0333 8.80022 14.9583 8.79189C14.8667 8.78355 14.775 8.77522 14.6833 8.77522C14.3583 8.77522 14.0333 8.84189 13.7417 8.99189C13.4583 9.13355 13.2167 9.34189 13.0333 9.60855C12.85 9.87522 12.7583 10.2336 12.7583 10.6669C12.75 10.9586 12.8 11.2502 12.9 11.5252C12.9833 11.7502 13.1083 11.9502 13.275 12.1169C13.4333 12.2669 13.625 12.3836 13.8417 12.4502C14.0667 12.5252 14.3 12.5586 14.5333 12.5586C14.6583 12.5586 14.775 12.5502 14.8833 12.5419C14.9917 12.5502 15.0833 12.5336 15.1833 12.5002Z" fill="#FF61F6"/>
</g>
<defs>
<clipPath id="clip0_1704_263">
<rect width="20" height="19.5" fill="white" transform="translate(0 0.25)"/>
</clipPath>
</defs>
</svg>
